Coordinates
version=1
nRows=4
nColumns=63
inDegrees=yes

Units are S.I. units (second, meters, Newtons, ...)
If the header above contains a line with 'inDegrees', this indicates whether rotational values are in degrees (yes) or radians (no).

endheader
time	pelvis_tilt	pelvis_list	pelvis_rotation	pelvis_tx	pelvis_ty	pelvis_tz	hip_flexion_r	hip_adduction_r	hip_rotation_r	knee_angle_r	knee_angle_r_beta	ankle_angle_r	subtalar_angle_r	mtp_angle_r	hip_flexion_l	hip_adduction_l	hip_rotation_l	knee_angle_l	knee_angle_l_beta	ankle_angle_l	subtalar_angle_l	mtp_angle_l	L5_S1_Flex_Ext	L5_S1_Lat_Bending	L5_S1_axial_rotation	L4_L5_Flex_Ext	L4_L5_Lat_Bending	L4_L5_axial_rotation	L3_L4_Flex_Ext	L3_L4_Lat_Bending	L3_L4_axial_rotation	L2_L3_Flex_Ext	L2_L3_Lat_Bending	L2_L3_axial_rotation	L1_L2_Flex_Ext	L1_L2_Lat_Bending	L1_L2_axial_rotation	L1_T12_Flex_Ext	L1_T12_Lat_Bending	L1_T12_axial_rotation	Abs_r3	Abs_r2	Abs_r1	Abs_t1	Abs_t2	neck_flexion	neck_bending	neck_rotation	arm_flex_r	arm_add_r	arm_rot_r	elbow_flex_r	pro_sup_r	wrist_flex_r	wrist_dev_r	arm_flex_l	arm_add_l	arm_rot_l	elbow_flex_l	pro_sup_l	wrist_flex_l	wrist_dev_l
      0.00000000	      4.32659231	    -19.29935128	    104.26928900	      0.20441706	      0.32536943	      0.71000606	     12.56234476	     -0.61466318	    -13.54445043	     12.17803449	      0.21254680	     28.00691678	      6.67237332	      0.00000000	     11.04971167	     -1.48186592	     -6.11246410	      7.47151714	      0.13040257	     30.52735391	      8.02403551	      0.00000000	      0.73795987	      0.23870672	     -0.15094859	      1.37046527	      0.31747993	     -0.16038288	      1.21239426	      0.58039151	     -0.16038288	      0.84341433	      0.58039151	     -0.13208002	      0.68526953	      0.48677074	     -0.12264573	      0.42167027	      0.36975671	     -0.11321145	      5.27117353	      2.70029813	     -0.83953079	      0.00000000	      0.00000000	     28.48205441	      5.22298129	      4.65365436	     13.93312863	     -8.89901496	     70.96258685	     42.98449549	     26.27169453	      3.88281219	      8.89202183	      7.74031607	     -5.94860377	     50.75796534	     44.85713874	     56.05979505	      2.49644829	      0.37832868
      0.01694915	      4.21400853	    -19.29532469	    104.16584471	      0.20375490	      0.32514607	      0.70975326	     12.62923748	     -0.84849670	    -13.74437475	     12.45600995	      0.21739839	     28.81831955	      7.40483982	      0.00000000	     10.86929854	     -1.23291515	     -4.83288309	      7.28090324	      0.12707573	     29.73948502	      5.78197211	      0.00000000	      0.72253962	      0.24577750	     -0.21286054	      1.34182833	      0.32688407	     -0.22616432	      1.18706035	      0.59758341	     -0.22616432	      0.82579053	      0.59758341	     -0.18625297	      0.67095029	      0.50118948	     -0.17294919	      0.41285914	      0.38070935	     -0.15964540	      5.16102827	      2.78028423	     -1.18386644	      0.00000000	      0.00000000	     28.48071960	      6.96564065	      7.30652344	     11.60940170	     -8.92060075	     65.02787338	     44.50641535	     15.93182620	      1.54748402	     14.18110919	      8.42202101	     -5.85700864	     51.52788997	     44.81814089	     55.90215097	      3.69431518	     -0.67418919
      0.03389831	      4.14831820	    -19.28589651	    104.03041837	      0.20345376	      0.32499823	      0.70960143	     12.69333774	     -0.93985724	    -13.46750915	     12.63018457	      0.22043831	     29.26101899	      7.42977054	      0.00000000	     10.78386688	     -1.14036969	     -4.73546069	      7.19752544	      0.12562052	     29.42928758	      5.19608251	      0.00000000	      0.70221188	      0.25119561	     -0.21427273	      1.30407769	      0.33409016	     -0.22766478	      1.15366391	      0.61075700	     -0.22766478	      0.80255796	      0.61075700	     -0.18748864	      0.65207396	      0.51223808	     -0.17409660	      0.40124387	      0.38910199	     -0.16070455	      5.01582927	      2.84157494	     -1.19172066	      0.00000000	      0.00000000	     28.47822375	      7.62479555	      8.76294301	      9.50750376	     -8.77557700	     59.46410286	     45.74140445	     12.76329552	     -1.00939164	     17.26082873	      8.99217711	     -5.78400403	     52.19367142	     44.74503587	     56.44702088	      4.55455873	     -1.54669945
      0.05084746	      4.08876214	    -19.20721828	    104.16797032	      0.20314118	      0.32511470	      0.70967506	     12.58904101	     -1.00776334	    -13.31534831	     12.60439016	      0.21998811	     29.43099571	      7.24935766	      0.00000000	     10.73221019	     -1.07306693	     -4.55276210	      7.16681643	      0.12508454	     29.23737441	      5.10026468	      0.00000000	      0.67011482	      0.24587171	     -0.29494896	      1.24447024	      0.32700937	     -0.31338327	      1.10093164	      0.59781246	     -0.31338327	      0.76587423	      0.59781246	     -0.25808034	      0.62226862	      0.50138158	     -0.23964603	      0.38290361	      0.38085527	     -0.22121172	      4.78656317	      2.78134991	     -1.64041763	      0.00000000	      0.00000000	     28.47586954	      7.37972204	      8.75322177	      8.94814163	     -8.76089400	     58.24009848	     46.08310707	     13.23733319	     -1.17094869	     16.66054080	      9.03158184	     -5.82377884	     51.98153157	     45.06280246	     56.13439677	      4.49807204	     -1.62826069
